<svg width="91" height="89" viewBox="0 0 91 89" fill="none" xmlns="http://www.w3.org/2000/svg">
<rect width="91" height="89" rx="4" fill="#FCC61B"/>
<path d="M54.1714 43.075C54.1714 44.8135 52.8857 46.2385 51.2571 46.2385C49.6571 46.2385 48.3429 44.8135 48.3429 43.075C48.3429 41.3365 49.6286 39.9115 51.2571 39.9115C52.8857 39.9115 54.1714 41.3365 54.1714 43.075ZM40.8286 39.9115C39.2 39.9115 37.9143 41.3365 37.9143 43.075C37.9143 44.8135 39.2286 46.2385 40.8286 46.2385C42.4571 46.2385 43.7429 44.8135 43.7429 43.075C43.7714 41.3365 42.4571 39.9115 40.8286 39.9115ZM71 21.871V73C63.802 66.655 66.104 68.7553 57.7429 61.0015L59.2571 66.274H26.8571C23.6286 66.274 21 63.652 21 60.403V21.871C21 18.622 23.6286 16 26.8571 16H65.1429C68.3714 16 71 18.622 71 21.871ZM62.8571 48.889C62.8571 39.712 58.7429 32.2735 58.7429 32.2735C54.6286 29.1955 50.7143 29.281 50.7143 29.281L50.3143 29.737C55.1714 31.219 57.4286 33.3565 57.4286 33.3565C50.6416 29.646 42.6692 29.6454 36.0857 32.53C35.0286 33.0145 34.4 33.3565 34.4 33.3565C34.4 33.3565 36.7714 31.105 41.9143 29.623L41.6286 29.281C41.6286 29.281 37.7143 29.1955 33.6 32.2735C33.6 32.2735 29.4857 39.712 29.4857 48.889C29.4857 48.889 31.8857 53.0215 38.2 53.221C38.2 53.221 39.2571 51.9385 40.1143 50.8555C36.4857 49.7725 35.1143 47.4925 35.1143 47.4925C35.5346 47.786 36.2277 48.1664 36.2857 48.205C41.1083 50.8989 47.9585 51.7815 54.1143 49.2025C55.1143 48.832 56.2286 48.2905 57.4 47.521C57.4 47.521 55.9714 49.858 52.2286 50.9125C53.0857 51.9955 54.1143 53.221 54.1143 53.221C60.4286 53.0215 62.8571 48.889 62.8571 48.889V48.889Z" fill="black"/>
</svg>
