<svg width="91" height="89" viewBox="0 0 91 89" fill="none" xmlns="http://www.w3.org/2000/svg">
<rect width="91" height="89" rx="4" fill="#FCC61B"/>
<path d="M69.812 28.9497C61.4351 15.9996 44.3322 12.1495 31.0687 20.1996C18.1543 28.2497 13.9659 45.7498 22.3428 58.6999L23.0409 59.7499L20.2486 70.25L30.7197 67.45L31.7668 68.15C36.3043 70.6 41.1908 72 46.0774 72C51.3129 72 56.5485 70.6 61.086 67.8C74.0004 59.3999 77.8398 42.2498 69.812 28.9497V28.9497ZM62.4822 55.8999C61.086 57.9999 59.3408 59.3999 56.8976 59.7499C55.5014 59.7499 53.7562 60.4499 46.7755 57.6499C40.8418 54.8499 35.9553 50.2998 32.4649 45.0498C30.3707 42.5998 29.3235 39.4498 28.9745 36.2997C28.9745 33.4997 30.0216 31.0497 31.7668 29.2997C32.4649 28.5997 33.163 28.2497 33.861 28.2497H35.6062C36.3043 28.2497 37.0024 28.2497 37.3514 29.6497C38.0495 31.3997 39.7947 35.5997 39.7947 35.9497C40.1437 36.2997 40.1437 36.9997 39.7947 37.3497C40.1437 38.0497 39.7947 38.7497 39.4457 39.0998C39.0966 39.4498 38.7476 40.1498 38.3985 40.4998C37.7005 40.8498 37.3514 41.5498 37.7005 42.2498C39.0966 44.3498 40.8418 46.4498 42.587 48.1998C44.6812 49.9498 46.7755 51.3498 49.2187 52.3998C49.9168 52.7499 50.6149 52.7499 50.9639 52.0498C51.3129 51.3498 53.0581 49.5998 53.7562 48.8998C54.4543 48.1998 54.8033 48.1998 55.5014 48.5498L61.086 51.3498C61.7841 51.6998 62.4822 52.0498 62.8312 52.3998C63.1802 53.4499 63.1802 54.8499 62.4822 55.8999V55.8999Z" fill="black"/>
</svg>
