<svg width="91" height="89" viewBox="0 0 91 89" fill="none" xmlns="http://www.w3.org/2000/svg">
<rect width="91" height="89" rx="4" fill="#FCC61B"/>
<path fill-rule="evenodd" clip-rule="evenodd" d="M40.218 50.6924V35.1132L55.3473 42.9293L40.218 50.6924ZM73.44 32.4123C73.44 32.4123 72.8917 28.5908 71.214 26.9088C69.0837 24.7001 66.6967 24.6908 65.6023 24.5614C57.767 24 46.0117 24 46.0117 24H45.9883C45.9883 24 34.233 24 26.3977 24.5614C25.301 24.6885 22.9163 24.7001 20.7837 26.9088C19.106 28.5908 18.56 32.4123 18.56 32.4123C18.56 32.4123 18 36.9014 18 41.386V45.5956C18 50.0824 18.56 54.5693 18.56 54.5693C18.56 54.5693 19.106 58.3884 20.7837 60.0727C22.9163 62.2815 25.714 62.2121 26.96 62.4432C31.44 62.8683 46 63 46 63C46 63 57.767 62.9838 65.6023 62.4224C66.699 62.293 69.0837 62.2815 71.214 60.0727C72.894 58.3884 73.44 54.5693 73.44 54.5693C73.44 54.5693 74 50.0824 74 45.5932V41.3883C74 36.9014 73.44 32.4123 73.44 32.4123V32.4123Z" fill="black"/>
</svg>
